<?xml version="1.0" standalone="no"?>
<!DOCTYPE svg PUBLIC "-//W3C//DTD SVG 20010904//EN"
 "http://www.w3.org/TR/2001/REC-SVG-20010904/DTD/svg10.dtd">
<svg version="1.0" xmlns="http://www.w3.org/2000/svg"
 width="16.000000pt" height="16.000000pt" viewBox="0 0 16.000000 16.000000"
 preserveAspectRatio="xMidYMid meet">
<metadata>
Created by potrace 1.11, written by Peter Selinger 2001-2013
</metadata>
<g transform="translate(0.000000,16.000000) scale(0.002645,-0.002645)"
fill="#000000" stroke="none">
<path d="M150 3025 l0 -2875 2875 0 2875 0 0 2875 0 2875 -2875 0 -2875 0 0
-2875z m1973 750 c148 -38 249 -132 297 -276 18 -53 21 -81 18 -165 -3 -89 -7
-108 -36 -167 -68 -138 -182 -217 -342 -237 -46 -5 -171 -10 -277 -10 l-193 0
0 -285 0 -286 -87 3 -88 3 -3 718 -2 717 328 0 c259 0 340 -3 385 -15z m1589
-350 l3 -364 313 364 313 365 110 0 110 0 -18 -23 c-10 -13 -142 -164 -293
-336 -151 -171 -275 -316 -275 -321 0 -5 142 -174 315 -375 173 -201 317 -370
318 -375 2 -6 -39 -10 -105 -9 l-108 0 -269 320 c-147 175 -272 319 -276 319
-4 0 -37 -33 -74 -74 l-66 -74 -2 -243 -3 -244 -87 -3 -88 -3 0 721 0 720 90
0 90 0 2 -365z m-609 -80 c79 -21 126 -46 187 -102 l51 -48 -49 -49 -50 -48
-39 39 c-58 58 -105 77 -200 81 -59 3 -96 -1 -133 -13 -71 -24 -149 -98 -186
-177 -27 -58 -29 -72 -29 -183 0 -116 1 -123 33 -187 39 -80 111 -149 179
-172 27 -9 79 -16 122 -16 92 0 147 22 209 83 l42 41 51 -49 50 -50 -51 -48
c-88 -81 -186 -117 -315 -117 -142 0 -254 48 -348 150 -101 109 -143 232 -134
395 9 156 53 261 151 353 120 113 298 159 459 117z"/>
<path d="M1592 3358 l3 -273 225 0 c213 1 228 2 277 24 146 65 204 240 125
384 -31 58 -71 91 -142 118 -44 17 -77 19 -270 19 l-220 0 2 -272z"/>
</g>
</svg>
