<?xml version="1.0" encoding="UTF-8"?>
<svg width="101px" height="86px" viewBox="0 0 101 86" version="1.1" xmlns="http://www.w3.org/2000/svg" xmlns:xlink="http://www.w3.org/1999/xlink">
    <!-- Generator: Sketch 44.1 (41455) - http://www.bohemiancoding.com/sketch -->
    <title>Black Logo</title>
    <desc>Created with Sketch.</desc>
    <defs></defs>
    <g id="Page-1" stroke="none" stroke-width="1" fill="none" fill-rule="evenodd">
        <g id="Letter-Copy-13" transform="translate(-26.000000, -27.000000)">
            <g id="Black-Logo" transform="translate(26.000000, 27.000000)">
                <g id="Logo">
                    <rect id="Box" stroke="#AE925E" stroke-width="3" x="1.5" y="1.5" width="98" height="83"></rect>
                    <g id="Group-Copy" transform="translate(20.000000, 29.000000)" fill="#AE925E">
                        <path d="M23.1915788,8.12685851 C23.1915788,6.57887772 22.8173167,5.23731449 22.0687812,4.10212858 C21.3202457,2.96694267 20.3781375,2.08976671 19.2424285,1.4705744 C18.0809079,0.825582401 16.8419712,0.419243539 15.5255811,0.251545621 C14.2091911,0.0838477017 12.699237,0 10.9956734,0 L9.25340123,0 C8.58230043,0 7.86604014,0.00644982321 7.10459885,0.0193496631 C6.34315756,0.032249503 5.5752749,0.0386993262 4.80092783,0.0386993262 C4.02658076,0.0386993262 3.31032047,0.0451491494 2.65212546,0.0580489894 C1.99393045,0.0709488293 1.41963165,0.0773986525 0.929211839,0.0773986525 L0,0.0773986525 L0,0.464391915 C0.696912364,0.567590634 1.34864471,0.690137275 1.95521658,0.832035514 C2.56178845,0.973933753 3.0586537,1.25127615 3.44582724,1.66407103 C3.60069665,1.81886911 3.72329976,2.07041221 3.81364026,2.41870789 C3.90398075,2.76700357 3.9685087,3.15399296 4.00722605,3.57968768 C4.04594341,4.00538239 4.07175459,4.45687002 4.08466037,4.9341641 C4.09756616,5.41145817 4.10401895,5.88229527 4.10401895,6.3466895 L4.10401895,13.8930581 L4.10401895,16.137619 C4.10401895,16.9116094 4.09756616,17.6662388 4.08466037,18.4015296 C4.07175459,19.1368205 4.058849,19.8140519 4.04594321,20.4332443 C4.03303743,21.0524366 4.02658463,21.5426231 4.02658463,21.9038186 C4.02658463,22.3166135 4.01367904,22.7423019 3.98786747,23.1808964 C3.96205591,23.619491 3.92979193,24.0322797 3.89107458,24.4192749 C3.85235722,24.8062701 3.79428206,25.1545605 3.71684736,25.4641567 C3.63941265,25.7737528 3.53616792,26.0059465 3.40711008,26.1607445 C3.07155968,26.5735394 2.60695841,26.8831309 2.01329232,27.0895284 C1.41962623,27.2959258 0.800157865,27.4507216 0.15486864,27.5539203 L0.15486864,27.9409135 L12.5443598,27.9409135 L12.5443598,27.5539203 C11.4860855,27.5023209 10.6601277,27.3088262 10.0664616,26.9734304 C9.4727955,26.6380345 9.07272218,26.3026437 8.86622963,25.9672479 C8.60811394,25.5802527 8.46615244,25.0900661 8.44034087,24.4966735 C8.4145293,23.9032809 8.38871812,23.1938003 8.36290655,22.3682106 C8.36290655,21.929616 8.35645375,21.5232771 8.34354797,21.1491818 C8.33064218,20.7750864 8.32418939,20.3687476 8.32418939,19.930153 L8.32418939,18.4208793 L8.32418939,16.2924163 L10.414916,16.2924163 C11.2150747,16.2924163 12.0345797,16.2601672 12.8734557,16.195668 C13.7123317,16.1311688 14.5447423,16.0344215 15.3707125,15.9054231 C16.1966827,15.7764247 16.9710182,15.58293 17.6937421,15.3249332 C18.3906545,15.0669364 19.0746508,14.7250958 19.7457516,14.299401 C20.4168524,13.8737063 21.0040568,13.3641703 21.5073824,12.7707777 C22.0107079,12.177385 22.4172341,11.4937038 22.7269729,10.7197134 C23.0367117,9.94572297 23.1915788,9.08144666 23.1915788,8.12685851 L23.1915788,8.12685851 Z M19.0101255,7.93336188 C19.0101255,9.55874171 18.5713354,11.0228516 17.6937421,12.3257354 C16.8161488,13.6286192 15.5514008,14.5638436 13.8994604,15.1314366 C13.0993018,15.415233 12.2346272,15.5893783 11.3054107,15.6538775 C10.3761942,15.7183767 9.38246372,15.7506258 8.32418939,15.7506258 L8.32418939,14.0478554 L8.32418939,10.797112 C8.32418939,9.55872739 8.33064218,8.29456204 8.34354797,7.00457805 C8.35645375,5.71459406 8.37581214,4.61812411 8.40162371,3.71513532 C8.42743528,3.12174268 8.45324646,2.66380524 8.47905803,2.34130924 C8.5048696,2.01881324 8.53068078,1.76727013 8.55649235,1.58667238 C8.58230392,1.40607462 8.6145679,1.25772868 8.65328525,1.14163012 C8.6920026,1.02553156 8.72426658,0.890085277 8.75007815,0.735287198 C8.93075913,0.709487519 9.16951256,0.677238403 9.46634561,0.638538883 C9.76317865,0.599839363 10.1826104,0.580489894 10.7246533,0.580489894 C11.4731888,0.580489894 12.1959019,0.632088479 12.8928143,0.735287198 C13.5897266,0.838485918 14.2479118,1.03198061 14.8673894,1.31577709 C16.1063447,1.90916973 17.106528,2.78634568 17.8679693,3.94733128 C18.6294106,5.10831687 19.0101255,6.43698045 19.0101255,7.93336188 L19.0101255,7.93336188 Z" id="P-Copy-11"></path>
                        <path d="M38.7753009,15.7533154 C38.6094924,15.9873283 40.7791517,14.3486508 40.5348064,14.6059535 C40.290461,14.8632561 35.3729894,18.4461122 35.0793215,18.6448004 C34.1878003,19.2479808 34.1982096,19.1513128 33.8580389,19.3449319 C33.1907394,19.7247469 32.2824841,19.9146515 31.133246,19.9146515 C30.4103381,19.9146515 29.7569504,19.7803287 29.1730633,19.5116791 C28.5891762,19.2430295 28.093343,18.8632201 27.6855488,18.3722398 C27.2777546,17.8812594 26.9626457,17.2883864 26.7402125,16.5936028 C26.5177793,15.8988193 26.4065644,15.1345688 26.4065644,14.3008286 C26.4065644,13.5411986 26.5085114,12.8278982 26.7124085,12.160906 C26.9163056,11.4939138 27.1943429,10.9103044 27.5465288,10.4100602 C27.8987146,9.90981609 28.3157706,9.5114795 28.7977092,9.21503852 C29.2796478,8.91859754 29.8079187,8.77037928 30.3825377,8.77037928 C31.1610539,8.77037928 31.7310304,8.9973385 32.0924843,9.45126374 C32.4539383,9.90518899 32.6346625,10.4749029 32.6346625,11.1604227 C32.6346625,11.5309739 32.588323,11.8459377 32.4956425,12.1053236 C32.5697869,12.383237 32.7319753,12.614828 32.9822126,12.8001037 C33.23245,12.9853793 33.5151212,13.0780157 33.8302349,13.0780157 C34.219493,13.0780157 34.5577717,12.9344292 34.8450813,12.647252 C35.1323908,12.3600748 35.2760434,12.0219519 35.2760434,11.6328731 C35.2760434,11.0955739 35.1323908,10.6231282 34.8450813,10.2155218 C34.5577717,9.80791547 34.1824214,9.46516073 33.7190189,9.18724732 C33.2556164,8.9093339 32.7273455,8.69627015 32.1341903,8.54804966 C31.5410352,8.39982917 30.938621,8.32572004 30.3269297,8.32572004 C29.4186609,8.32572004 28.579915,8.51099287 27.8106669,8.88154409 C27.0414187,9.25209531 26.3787631,9.74306831 25.8226802,10.3544778 C25.2665972,10.9658873 24.8310054,11.6745559 24.5158917,12.4805048 C24.200778,13.2864537 24.0432236,14.1340769 24.0432236,15.0233999 C24.0432236,15.9683055 24.1961441,16.8576151 24.5019897,17.6913553 C24.8078354,18.5250956 25.2295253,19.2522914 25.7670722,19.8729647 C26.304619,20.493638 26.9533728,20.9753474 27.7133528,21.3181073 C28.4733329,21.6608671 29.2981769,21.8322445 30.1879097,21.8322445 C30.8922814,21.8322445 31.5456691,21.7303444 32.1480923,21.5265413 C32.7505156,21.3227381 33.2926883,21.0309334 33.7746269,20.6511184 C33.9837054,20.486344 34.5129805,20.1350827 34.6998457,19.9898124 C34.9176656,19.8204777 36.0556259,18.964729 36.3105007,18.6448004 C36.7606728,18.0797272 39.8181877,15.7533154 39.8181877,15.7533154 L38.7753009,15.7533154 Z" id="c-copy-8"></path>
                        <path d="M61.8957003,27.9478506 L61.8957003,27.5608573 C61.1729763,27.509258 60.521244,27.4189604 59.9404837,27.289962 C59.3597234,27.1609636 58.9015749,27.0319672 58.5660245,26.9029688 C58.4885898,26.8771691 58.3337227,26.7739719 58.1014186,26.5933742 C57.8691145,26.4127764 57.5980971,26.1999322 57.2883582,25.9548353 C56.9786194,25.7097383 56.6559796,25.4323959 56.3204292,25.1227998 C55.9848788,24.8132036 55.6880503,24.5036121 55.4299346,24.1940159 C54.3458487,22.981431 53.2166095,21.7172656 52.0421831,20.401482 C50.8677567,19.0856983 49.7643287,17.8473322 48.7318659,16.6863466 C47.6994031,15.5253611 46.8089174,14.5127388 46.0603819,13.6484495 C45.3118464,12.7841603 44.8343395,12.2230256 44.6278469,11.9650288 C45.0666436,11.5006346 45.5506033,11.0039982 46.0797404,10.4751048 C46.6088776,9.94621135 47.1509124,9.39797637 47.7058612,8.83038342 C48.2608099,8.26279046 48.8222031,7.69520602 49.3900576,7.12761306 C49.9579121,6.56002011 50.5128525,6.0311346 51.0548955,5.54094069 C52.4487202,4.2509567 53.8167129,3.11578781 55.1589144,2.13539998 C56.501116,1.15501215 57.8303919,0.600327349 59.1467819,0.47132895 L59.1467819,0.0843356878 L57.2883586,0.0843356878 L55.8631109,0.0843356878 C55.0715485,0.285060091 50.0611572,5.29584237 49.6223606,5.81183597 C49.0028829,6.48262765 48.2672642,7.26950608 47.4154825,8.17249487 C46.5637007,9.07548366 45.7054789,9.95265962 44.8407913,10.8040491 C43.9761038,11.6554385 43.1501459,12.4229675 42.3628931,13.106659 C41.5756402,13.7903505 40.9497191,14.2740872 40.4851108,14.5578837 L40.4851108,10.9975457 L40.4851108,8.55948813 C40.4851108,7.88869646 40.4915636,7.29531272 40.5044694,6.77931913 C40.5173752,6.26332553 40.5367336,5.70864073 40.5625451,5.1152481 C40.5883567,4.03166155 40.7238654,3.19318453 40.9690753,2.59979189 C41.2142852,2.00639926 41.5175666,1.56136146 41.8789286,1.26466514 C42.2402905,0.96796882 42.6532695,0.774474124 43.1178777,0.684175244 C43.5824859,0.593876365 44.0599928,0.52292831 44.5504126,0.47132895 L44.5504126,0.0843356878 L32.548093,0.0843356878 L32.548093,0.47132895 C33.2191938,0.54872799 33.812851,0.6906241 34.3290824,0.897021539 C34.8453138,1.10341898 35.2841039,1.42591014 35.6454658,1.86450469 C35.9293931,2.22570021 36.1036186,2.81908395 36.1681475,3.6446737 C36.2326764,4.47026346 36.2649404,5.3732387 36.2649404,6.35362654 L36.2649404,13.8999952 L36.2649404,16.1445561 L36.2649404,18.4278163 C36.2649404,19.1502074 36.2584876,19.820989 36.2455818,20.4401813 C36.232676,21.0593736 36.2262232,21.5495602 36.2262232,21.9107557 C36.2262232,22.3235506 36.2197704,22.7556887 36.2068646,23.2071831 C36.1939589,23.6586775 36.1681477,24.0843658 36.1294303,24.4842609 C36.090713,24.8841559 36.0326378,25.2388962 35.9552031,25.5484924 C35.8777684,25.8580885 35.7745237,26.0902821 35.6454658,26.2450802 C35.335727,26.6062757 34.8840313,26.890068 34.2903652,27.0964654 C33.6966991,27.3028628 33.0772308,27.4576586 32.4319416,27.5608573 L32.4319416,27.9478506 L44.8601499,27.9478506 L44.8601499,27.5608573 C44.6020342,27.5350576 44.2987528,27.4899089 43.9502966,27.4254097 C43.6018405,27.3609105 43.2469367,27.2706129 42.8855747,27.1545144 C42.5242128,27.0384158 42.1886674,26.8900699 41.8789286,26.7094721 C41.5691898,26.5288744 41.3239835,26.3095804 41.1433025,26.0515836 C40.8851868,25.7161878 40.7174142,25.2260012 40.6399795,24.5810092 C40.5625448,23.9360172 40.5109224,23.2394363 40.4851108,22.4912456 C40.4592993,21.6398561 40.4463937,20.6207841 40.4463937,19.4339988 L40.4463937,15.6027655 C40.5238284,15.3963681 40.5948091,15.2480221 40.659338,15.1577233 C40.723867,15.0674244 40.8593757,15.0222756 41.0658682,15.0222756 C41.2465492,15.0222756 41.4594915,15.1125731 41.7047014,15.2931709 C41.9499113,15.4737687 42.4080597,15.9381559 43.0791605,16.6863466 C44.6794778,18.4407249 46.2216959,20.1757273 47.7058612,21.891406 C49.1900264,23.6070847 50.7580557,25.4194851 52.4099961,27.3286614 C52.5648655,27.5092591 52.706827,27.6447054 52.8358848,27.7350043 C52.9649427,27.8253032 53.081093,27.8962512 53.1843393,27.9478506 L61.8957003,27.9478506 Z" id="K-Copy-9"></path>
                    </g>
                </g>
            </g>
        </g>
    </g>
</svg>