<svg xmlns="http://www.w3.org/2000/svg" width="524" height="450" viewBox="0 0 524 450">
  <g fill="none" fill-rule="evenodd" transform="translate(10 10)">
    <rect width="491" height="417" x="6.5" y="6.5" stroke="#FFF" stroke-width="13"/>
    <g fill="#FFF" transform="translate(117 155)">
      <path d="M0,120 L0,0 L47.4184261,0 C58.8196347,0 67.8310609,3.46995066 74.452975,10.4099561 C81.0748892,17.3499615 84.3857965,25.9443119 84.3857965,36.193265 C84.3857965,46.3836527 81.0604939,54.9487208 74.4097889,61.8887262 C67.7590838,68.8287316 58.7620529,72.2986823 47.4184261,72.2986823 L14.6833013,72.2986823 L14.6833013,120 L0,120 Z M14.6833013,59.033675 L45.6046065,59.033675 C52.5720118,59.033675 58.2437401,56.9253505 62.6199616,52.7086384 C66.9961831,48.4919262 69.184261,42.9868568 69.184261,36.193265 C69.184261,29.3996732 66.9961831,23.8946038 62.6199616,19.6778917 C58.2437401,15.4611795 52.5720118,13.3528551 45.6046065,13.3528551 L14.6833013,13.3528551 L14.6833013,59.033675 Z"/>
      <polygon points="180 120 180 0 194.74 0 194.74 61.845 247.11 0 265.578 0 216.243 56.837 270 120 251.532 120 206.618 66.061 194.74 79.678 194.74 120"/>
      <path d="M90,77.3772859 C90,69.4144613 91.6729974,62.228938 95.0190424,55.8205005 C98.3650875,49.4120629 103.112048,44.3399288 109.260065,40.6039461 C115.408083,36.8679634 122.426511,35 130.31556,35 C142.774817,35 152.622379,39.6903605 159.858542,49.0712223 L151.534276,56.5976901 C146.474403,49.6711235 139.619195,46.2078922 130.968444,46.2078922 C122.535322,46.2078922 115.775325,49.1257328 110.688248,54.9615014 C105.601172,60.7972701 103.057671,68.2691235 103.057671,77.3772859 C103.057671,86.4854482 105.614773,93.9845711 110.729053,99.8748797 C115.843334,105.765188 122.58973,108.710298 130.968444,108.710298 C139.401566,108.710298 146.256774,105.192528 151.534276,98.1568816 L159.858542,105.928778 C152.622379,115.309639 142.774817,120 130.31556,120 C118.454783,120 108.77044,115.936839 101.262242,107.810395 C93.754043,99.6839504 90,89.5396822 90,77.3772859 L90,77.3772859 Z"/>
    </g>
  </g>
</svg>
